<svg xmlns="http://www.w3.org/2000/svg" width="336.561" height="727" viewBox="0 0 336.561 727">
    <defs>
        <style>
            .prefix__cls-1,.prefix__cls-2{fill:#0ce0ff}.prefix__cls-2{stroke:#f9f9f9;stroke-linecap:round;stroke-linejoin:round}
        </style>
    </defs>
    <g id="prefix__tn" transform="translate(-.5 -.5)">
        <path id="prefix__TUN96" d="M672.032 1259.588l5.354-10.068 1.38-1.616 1.448-1.313 1.482-1.111 1.616-.976 3.906-1.448 1.279-.64 2.963-2.189.741-.707.539-.741.3-.808-.168-.4-.371-.236-.673-.034-2.357.438-.606-.067-.606-.236-.741-.438-21.652-17.982-.269-.37-.135-.37.068-.775.774-3.064.1-1.212-.337-8.418.1-.808.135-.707 1.078-2.862.438-1.583.27-1.684v-.673l-.236-1.01-.4-.707-.977-.741-1.01-.539-1.044-.707-3.5-3.2-.606-.741-.505-.808-.236-.505-1.078-4.613-.505-.808-.842-.673-22.763-10.742-1.785-.4-3.8-.472-1.448-.437-.775-.438-.808-.64-.572-.707-.168-.707.37-.606 1.65-.606.2-.3.236-1.044.808-1.347v-.674l-.236-.337-.808-.1-6.364.774-2.862-.4-.741.067-.673.2-14.446 6.432-1.078.741-5.623 2.424-.741.472-.573.775-.37.269-.572.2h-1.01l-4.209-.842-1.515-.1-.505.168-.572.269-1.01.741-1.01.909-1.717 2.458-.606.539-2.795 1.179-2.054.572-1.785.27-7.105.168 1.145-2.728.236-.707.1-.707v-7.442l-.135-.707-.4-.4-.707-.472-1.616-.539-.875-.2-.606-.034-.741.067-.774-.033-1.448-.371-1.751-.606-1.549-1.347-4.782-5.051 1.515.034 2.155.3.741.034.774-.1 3.468-1.111 1.515-.27 4.512.4 1.414-.034.707-.2 2.425-1.077 6.095-1.347.909-.337 9.462-7.88 2.66-1.145 5.455-1.616.472-.337.572-.606 1.751-3.569 4.58-7.273.3-.808.606-.909 5.118-6.331 2.02-1.482 2.391.539 5.657-.842 6.23-1.785 5.253-2.862 1.549-.4 1.919 3.469-.236 6.8-2.425 2.088-1.313.573-1.044 1.313-.4 1.683.471 1.549 1.953 3.333 1.111 1.246 1.751.539 3.468-.741 6.23-3.839 2.963-.875 1.414-.606 1.313-1.549.606-1.852-.539-1.717-1.381-1.65-.236-.842 2.458-1.953.943.673 1.044.169.909-.4.505-1.111h.572l1.313.875 3.468 1.616 1.448.943 1.077 1.381 2.862 4.411.269.943.438 4.95-2.222 3.536 1.717 6.027-.707 2.862 2.391-.74 1.616 1.717 1.65 2.189 1.886 1.078 1.987.471 4.209 2.155 2.02.741-.5.471-.606.2-8.082-2.66-3.974-.438-.976 3.1.808 1.179 1.313 1.077 1.313 1.414.539 2.122.775.976h1.818l3.6-.674 3.5.774 6.937 2.593h3.67l1.347-.977-.472-1.313-1.381-1.178-1.481-.505-.943-.64-1.145-1.448-1.279-1.313 7.475 5.32 4.546 2.155.606.135.067 4.411-2.357 9.361-.2 1.516-.034 5.489-1.482 6.634.606 10.169-1.212 10.3.067 5.388 1.684 3.772 5.522 5.455 1.886 3.5.3 4.108-1.45 3.015-2.694 2.559-5.724 3.873-21.551 10.338zM651.255 1099.1l2.458 2.963 2.627 2.425 1.583 1.01 1.684.775 1.414.909.977 1.381-5.455 5.051-1.38.64-.505.438-.37.842-.808 3.233h-.539l.269-2.626.269-.842-1.28.438-1.044 3.132-1.482 2.256-1.38 1.549-.505 1.785-1.381-1.414v-1.717l.505-1.616-1.482-2.29-1.381-.673-1.313-1.179-1.414-.438-1.549 1.549-.673 1.482-1.549.336-1.886-1.515-.539-1.482-.505-2.727.067-2.627 1.583-2.795-1.01-4.041.034-3.064 3.064-1.145 6.667 1.448 3.6.236 2.627-1.684z" class="prefix__cls-1" transform="translate(-366.388 -728.331)"/>
        <path id="prefix__TUN114" d="M660.549 753.367l-3.3 2.627-1.583-.337-4.378-2.155-1.583-1.077 1.886-1.516 9.395.068.775 1.145zm15.187-11.584l1.987 2.054-.64 1.381-8.014 3.4-4.142 2.525-1.515.606-.707-1.717 1.145-1.347 1.38-1.313 1.482-2.155.2-1.381-.1-.64.067-.943.674-.37.168.976 1.246.808 1.953-.37.2-2.223-.572-1.178.64-1.347.976-.909.673-1.078.741-1.078 1.347.774 2.357.37.4.909-2.155.741-.3.606-.5.64-.2 1.212.741.3.471.741zm-21.786-33.134l.539 2.862-.337 3.031-2.795 3.5-3.165 1.616-2.323 2.593.606 2.357-.675 2.092-.034 3.973-3.367 2.458-.707.808-.539.438-.337.606.909 1.987.337 1.347-3 1.414-1.953 1.448-2.626 2.93-1.28 2.627-1.616 1.482-.772 1.782-1.414 1.616-1.347.875-5.489 1.785-.741.471-.3.707-.135 1.044-.4 1.212-.64 1.044-.135 1.953-.572 1.111-.142 1.782-1.28 1.212-1.818.909-7.677 1.145-2.829 1.583-4.378 7.307-3.973 1.044-.808-.067-.741-.37-.943-.068-.977.37-.505.505-.337.606-1.751 2.357-.774.707-1.077.269-3.906 1.717-1.65 1.313-3.266 1.313-2.02 2.155-1.044 3.1-2.93 5.96-1.751 2.829-1.145.4-.707.741-1.751-1.583-.3-.2-.505.034-.37.37-.169.875.034 1.145-.2.707-.337.269-.4.135-.673.034-1.886-.3-1.448-.774-1.515-1.111-1.28-1.212-1.01-1.616-.64-.808-.606-.37-.741-.236-1.381-.034-.707.1-1.448.337-1.818.135-1.38-.236-1.381-.505-.774-.4-.707-.707-1.01-1.549 1.616.808.673.269.674.067.673-.236.3-.37.135-.573-.067-1.077-.27-1.179-.572-1.381-.471-.775-.539-.741-1.381-1.212-.438-.674.1-.471.3-.539.775-.943 1.01-.976 2.323-1.246 4.916-1.684 1.616-.875.774-.539 3.064-2.694.539-.37.673-.337 1.111-.168 1.852.034.808-.236.337-.3 1.246-1.414.741-.64 3.94-2.02.337-.3.572-.674.471-1.111.438-1.717.27-1.785-.1-.808-.4-.505-.337-.3-6.667-3.367-1.785-.505-8.89-1.078-.505-.37-.3-.673-.471-2.021v-1.01l.2-1.381.236-.876.573-1.482 1.852-3.973 9.462-15.625 6.4-14.479.64-1.246 1.549-2.424 4.31-5.017 3.266-2.9 1.751-1.145 1.01-.4 2.054-.2 9.462 1.65.674.2.4.236 2.323 1.616.674.371 1.111.034 1.145-.3 9.125-4.344 1.616-1.179 1.414-1.347.438-.673.135-.471-.067-.674.067-.775.4-.64 1.549-.909.37-.3.4-.707.168-.674.4-.572.674-.2 7.341 2.155 1.044.067.808-.471.774-.707.3-.37.539-.808 1.28-2.761.37-.1.505.269 1.01 1.212.808 1.515.606 3.569.3 1.111 1.145 3.064.4.842.471.4.64.3 1.145.067.673-.168.471-.27 1.044-1.448.3-.337.438-.034.573.3.943 1.044.876 1.212 2.29 3.94 1.178.707 3.872.741h.1z" class="prefix__cls-1" transform="translate(-362.01 -457.388)"/>
        <path id="prefix__TUN99" d="M505.524 43.631l.774 1.313h-.573l-1.111-.1-.539.1L503.6 44l.269-.471.438-.337.135-.337.438-.236.2.471zM352.781 2.179l.135 1.28-.741.1-1.044-.337-.909.4-.842.505-1.28-.606.876-.808 1.044-.572 1.347-.471.504-.67.572.37v.438z" class="prefix__cls-2" transform="translate(-230.219)"/>
        <path id="prefix__TUN101" d="M98.855 954.282l-6.634 11.954-4.479 5.59-50.679 41.048-15.894 7.88-1.381.842v-.4l-1.246-3.872-11.516-20.2-.707-2.526-.842-5.152-2.357-4.613-.572-1.684-1.148-5.464-.4-3.839 1.717-9.967.236-7.307 1.147-2.694 5.118-5.321 2.02-2.694 2.222-2.357 3.2-1.583 5.253-.842 1.549-.842 1.044-1.246.707-1.616 3.1-11.819 1.616-3.5 3.233-2.324 7.139-3.165 3.435-2.458 7.812-3.6.673-.606.37.337.64 1.852.034.976-1.347 5.186v.775l.168.572 2.9 2.862.3.438.4.741-.034.471-.236.3-.4.2-3.94.505-.774.236-.37.337L47 929.3l-.44.7-.505 1.044.034.572.269.4 6.028 4.007 1.515 1.448.707.774 1.212 1.785 1.01 1.751.673 1.01.741.572.37.135 3.064.3 6.2 2.121.471.3 1.414 1.078 1.078 1.111.337.539.2.471.337 1.381.741 2.357.4.64.37.337 18.049-1.078 3.132.269z" class="prefix__cls-2" transform="translate(0 -602.842)"/>
        <path id="prefix__TUN102" d="M572.119 152.647l-.37.236-11.584 3.738-10.2 5.623-3.468 1.347-1.549.842-.741.539-.067.37.135.337.438.438.64.438.4.471.236 1.212.5.707 1.482 1.078.707.673.4.774.034.876-.235 1.078-4.108 4.209-1.516 1.078-1.246.269-.337-.741-.505-.64-.337-.2-.674-.034-.707.168-.438.337-.471.539-1.347 2.458-1.347 3.233-.808.741-2.526.808-.842-1.919-3.233-4.782-2.694-5.657-.606-1.65-.3-1.145-.269-.337-.471-.269-2.223-.168-4.647-1.616-9.63-9.024 3.266-2.829 7.139-3.266 4.344-.977.775-.4.539-.4.977-1.751 1.111-1.347 1.448-1.28.774-.539.606-.3 3-.135 1.65.2 1.582.471 4.378 2.054.573.135 1.178.1 1.111-.034.673-.236.471-.3.3-.337.337-.707.64-1.717 1.313-2.525.673-1.01 2.862-5.927.539-1.515.472-.808.707-.943.505-.842.842-1.044.572-.471.606-.3 4.31-.438 3.906-1.347.539-.1.741 1.179.269.976-.505 1.246-.539-1.482-3.569 3.536.673 5.051 3.1 5.219 3.771 3.872 3.064 1.482.876.606 1.919 2.761z" class="prefix__cls-2" transform="translate(-336.01 -84.367)"/>
        <path id="prefix__TUN104" d="M646.437 232.79l-.1.539-1.818 6.5-3.132 6.263-.168 1.01.2.741.3 2.458-1.481 9.024-1.92.2-.741.2-.775.3-3.064 1.785-.337.269-.471.034-.438-.168-.64-1.01-.2-.606-.1-.505.168-.774-.707-1.01-7.475-6.869-.2-.438-2.256-1.684-3.3-1.549-1.448-.471-.977-.2-.842.4-.707.135-.438-.1-.539-.269-.842-.842-.539-.64-1.65-3.064 1.246-.269 1.515-1.078 4.108-4.209.943.269.842.135 1.111.034 1.818-.3.471-.3.505-.438 1.212-1.616.505-.4.64-.135 1.313.269h.741l.943-.168.572-.067.572-.168.673-.438 1.111-1.145 1.111-.875.471-.977 1.01-3.637-.2-.505.269-.236 1.246-2.29 1.785 3.94 2.155 3 2.9 1.785 3.94.471 1.111-.3z" class="prefix__cls-2" transform="translate(-403.796 -147.842)"/>
        <path id="prefix__TUN105" d="M484.717 84.159l-.539.1-3.906 1.347-4.31.438-.606.3-.572.471-.842 1.044-.505.842-.707.943-.471.808-.539 1.515-2.863 5.933-.673 1.01-1.313 2.525-.64 1.717-.337.707-.3.337-.471.3-.673.236-1.111.034-1.179-.1-.572-.135-4.378-2.054-1.583-.471-1.65-.2-3 .135-.606.3-.775.539-1.448 1.28-1.111 1.347-.977 1.751-.539.4-.775.4-4.344.977-7.139 3.266-3.263 2.837-.909.3-.775.471-.774.673-7.913 8.351-.775.64-.774.3h-.707l-.741-.135-.37-.168-1.111-.707-.438-.64-.505-.909-.673-1.919-.168-.943-.067-.64.471-1.347.2-.4.64-1.751.269-1.313.034-1.246-.471-.977-.842-.707-.977-.64-2.963-.977-.774-.4-.741-.505-2.728-2.593-.4-.572-.438-.774-1.078-2.963-1.992-4.347-.774-2.559-.3-.774-.842-1.111-1.044-.909-.572-.37-.539-.2-5.118.1-.37-.067-.4-.269-.337-.438-.37-.909-.236-1.179.135-1.448.471-2.222.135-1.583-.2-3.536-.1-.471 6.566-2.694.976-.606 1.751-2.829 1.482-.808 10.876-.135 3.132-1.246 1.987-2.189 1.178-.774 1.111.471.842.505.909-.168.876-.438 2.391-.606 1.953-.876 1.751-1.179 1.145-1.179 1.684.943 1.515-.269 3.031-2.088 1.717-.909 1.414-.37 3.6-.067 1.811-.744 1.01-.2.876.539.64.673.842.3 7.038.2.2 1.28.034 4.681-2.559 2.054-3.1 1.347-1.751 2.559.269.774 1.313 2.829.4.64.471.337.505 1.448.673.337 3.6.505 1.684-.337 1.818-1.515 1.01-1.381.909-1.919-.034-1.684-5.253-2.155-.808.1-1.684.539h-.943v-.64l2.02-1.381.774-.236.505-.471.64-.774 1.246-.2 8.014 1.818 1.482-.135 4.378-1.987.707.168L473 72.171l5.792.875 2.694 2.458 6.095 2.222 1.583 1.313-2.626.707-1.246.505-1.145.842-.438-1.684-2.29-.3-2.627.673-1.482 1.313.606 1.684 2.155.842 2.492.1 1.583-.438z" class="prefix__cls-2" transform="translate(-258.408 -40.327)"/>
        <path id="prefix__TUN106" d="M238.535 220.391l-1.313-.37-1.381-.135-1.583.3-3.5 1.347-7.139 2.458L203.952 225l-.741.135-3.132 1.145-7.408 3.839-1.65.1-5.152-.438-1.313.135.2-1.414.135-4.209-.168-1.953-.707-1.886-1.246-.774-1.549-.438-1.616-.842-7.139-.909-3.367-1.414.168-3.5 1.953-2.391 2.357-1.515 5.32-2.02 9.967-6.061 1.852-2.054 1.852-3.6.707-3.6-1.65-2.088-2.862-1.515.505-1.65 2.559-1.246 3.165-.4 3.1.236 2.829-.606 5.691-2.29 1.482-1.077.067-1.246-2.829-4.344-.269-1.044.067-1.246-.269-2.728 1.549-.64 5.826-2.424 2.02-.4h7.038l1.818-.64 3.4-2.9 2.492-1.179 3.569 3.805.539 1.078-.269.236-1.549.572-.539.269-.269.3-.2.741.1.505.236.438 3.132 3.6 1.549 2.559.3.842.067.673-.539.775-3.031 2.525-.337.337-.37.842-.1.572-.034.909-.269 1.111-.4.875-.168.572.1.438.3.4.842.606.438.168 4.714.774 1.246.707.774.64.438.539.2.909-.539 5.152.168 1.919.236.707.3.572.64.842 2.761 7.408.505 1.886.1 1.179-.269.37-1.313 1.482-.539.741-.3.741-.168.977-.067 2.93-.2.741-.3.37-.4.269-1.549.876z" class="prefix__cls-2" transform="translate(-111.495 -106.719)"/>
        <path id="prefix__TUN107" d="M715.358 216.6l-.875-1.886-.606-.572-.471-.034-.64.135-1.078.505-.606.4-.573.236-.539.034-.842-.471-.539-.4-1.65-.37-5.084.909-.505-.067-.64-.337-.3-.3-.471-.774-.236-2.088.168-7.24 1.482-9.024-.3-2.458-.2-.741.168-1.01 3.132-6.263 1.818-6.5.1-.539 1.684.067 4.176-2.121 2.559-.64 1.583-1.65 1.179-5.253 1.17-4.148 1.481-1.313 1.751-.37 3.839.269 3.435-.673 3.2-1.246 4.108-2.963 2.525-2.66.741-.37.337-.943.236-.539 4.748-3.872.673-.842.2-1.145-.3-.707-.134-.673.741-1.044 1.785-.876 4.142-.438 3.2-2.424 1.684-.269 1.448.741.774 1.852-.1.876-.876 1.246-.2 1.078.2 1.145.808 1.482.168.909.3.707 1.414 2.155.539 1.01.2 1.01.135 2.222.2.977.4.808.539.943.606.741.438.337.471.572.976 1.549-.438 1.684-1.145 1.616-3.3 1.347-4.479 3.805-2.458 4.546-3.5 5.152-5.792 10.809-4.411 11.112-2.121 2.862-6.836 1.785-7.947 4.512-2.862-.774-2.862 2.121-1.751 2.761z" class="prefix__cls-2" transform="translate(-463.423 -92.791)"/>
        <path id="prefix__TUN108" d="M637.213 211.1l.2.505-1.01 3.637-.471.976-1.111.876-1.111 1.145-.674.438-.572.168-.573.067-.943.168h-.741l-1.313-.269-.64.135-.505.4-1.212 1.616-.505.438-.471.3-1.818.3-1.111-.034-.842-.135-.943-.269.236-1.078-.034-.876-.4-.774-.707-.673-1.482-1.078-.505-.707-.236-1.212-.4-.471-.64-.438-.438-.438-.135-.337.067-.37.741-.539 1.549-.842 3.468-1.347 10.2-5.623 11.584-3.738.37-.236.808 1.179-.4 1.212-1.886 1.886-.808 2.088-.875.842-1.111.168-1.078-.943.606-1.549-.775-.438-1.414.236-2.66.875-.808.606-1.414 2.02-.4 1.515 1.178.505 2.559.067 1.078.572z" class="prefix__cls-2" transform="translate(-407.974 -132.52)"/>
        <path id="prefix__TUN109" d="M249.7 413.822l-4.074-.269-14.143-6.028-6.7-1.886-.808-.067-.674.236-.909.539-1.852 1.482-.808.774-.505.606-.505 1.179-.269.943-.2.842-.337 4.176-.236 1.313-.2.707-.438.674-.236.269-1.751.236-3.805-.236-.943-.3-3.6-1.919-.774-.2-.741-.034-.707.269-.977.539-2.93 2.222-1.414 1.347-1.044.438-2.458.236-1.482.2-.3-3.1-1.414-3.334-4.007-6.634-.977-3.536-.37-4.31.471-8.082 2.088-7.543.269-5.623 1.717-7.476.943-1.717.741-1.919-.2-1.818-.64-1.919-.37-2.02.37-4.209 3.906-10.944.1-.539 1.313-.135 5.152.438 1.65-.1 7.408-3.839 3.132-1.145.741-.135 19.665-1.01 7.127-2.461 3.839 5.859 1.01 2.088.1.471.034.775-.1.775-.539 1.178-.269.4-.236.572-.2.674-.067 1.347.1.741.168.572.842 1.414 2.123 2.634 1.616 2.66.572 1.414.1.842v1.448l-.168 2.121.034.741.135 1.381.269.707.337.539 1.078.774 5.051 2.593.64.606.707.875 1.28 2.054.471 1.01.269.842-.1 1.785-.438 2.761-.572 2.256-.471 1.145-.438.741-1.987 2.189-1.185 1.816-.3.741-.269 1.515-.236.876-.3.808-.471.842-2.93 2.458-.3.337-.269.505-.2.673-.1.842v4.003l-.37 3.771-.1.741z" class="prefix__cls-2" transform="translate(-123.434 -224.184)"/>
        <path id="prefix__TUN110" d="M250.893 544.95l5.085 7.274 1.549 1.785.707.168.741-.135 1.111-.471.741-.135.337.034 3.266 1.515.775.505.505.505.977 2.323.606.977.471.438.471.269 2.054.371 1.684.842 3 1.818.673.539.64.673.471.707.539 1.145.2.673.1.707-.168 1.751-.337 1.448-.3.606-.438.674-.946 1.044-1.111 1.044-2.862 1.684-.808.606-.707.741-.337.539-.3.673-.943 2.761-.707 1.01-1.28 1.111-.808.539-.438.505-.471.707-1.28 3.2-.37 1.549-.067 1.145.168.64.37.505.977.64 6.162 1.953.875.471.37.269.505.741.2.876-.034 1.077-.707 4.243-.067 1.212.1 1.751.168 1.044.37 1.01.673 1.583.135.505v.674l-.168.673-.37.471-.606.572-2.121 1.212-4.142 1.313-3.233 1.684-.438.067-.673-.1-1.414-.4-.471.2-.472.438-.808 1.111-.606 1.212-.774 1.785-.505.808-2.694 3.031-.539.808-.236.606.1.4.4.774.64.674 1.179.64.269.269.135.337-.741.673-20.17 11.651-2.425 1.313-1.549.573-3.7.539-.741.236-8.418 4.243-.842.539-.673.673-.337.64-.471 1.852-.269.741-.707-.034-1.145-.438-5.725-3.266-1.145-.842-8.991-3-1.65-.909-1.01-.876-1.145-.572-3.064-.37-1.01-.1.64-.909.236-1.347-1.515-10.1-.168-3.738.842-3.906 1.953-5.354 1.448-7.408 1.111-3.536 3.872-4.31 4.984-7.678.808-1.987-2.829-2.222-3.435-1.044-3.1-1.549-1.919-3.569-.505-4.142.168-3.7.876-3.5 2.963-7.172.034-3-.808-8.452 1.482-.2 2.458-.236 1.044-.438 1.414-1.347 2.93-2.222.977-.539.707-.269.741.034.775.2 3.6 1.919.943.3 3.805.236 1.751-.236.236-.27.438-.673.2-.707.236-1.313.337-4.176.2-.842.269-.943.505-1.178.505-.606.808-.774 1.852-1.482.909-.539.673-.236.808.067 6.7 1.886 14.143 6.028z" class="prefix__cls-2" transform="translate(-124.628 -355.311)"/>
        <path id="prefix__TUN111" d="M473.177 986.478l1.01 1.549.707.707.775.4 1.381.505 1.381.236 1.818-.135 1.448-.337.707-.1 1.381.034.741.236.606.37.64.808 1.01 1.616 1.28 1.212 1.515 1.111 1.448.774 1.886.3.673-.034.4-.135.337-.27.2-.707-.034-1.145.168-.876.37-.37.505-.034.3.2 1.751 1.583-.4.27.774 1.684.3 1.987v4.175l.269 1.818 1.179 3.839.269 1.852.775 3.233 1.852 3.7 7.577 10.877.775.808 1.179.64 11.786 11.786 3.064 1.852 6.465 2.829 1.179.27-2.02 1.481-5.118 6.331-.606.909-.3.808-4.58 7.274-1.751 3.569-.573.606-.471.337-5.455 1.617-2.66 1.145-9.462 7.88-.909.337-6.095 1.347-2.424 1.078-.707.2-1.414.034-4.512-.4-1.515.269-3.468 1.111-.775.1-.741-.034-2.155-.3-1.515-.034-3.3-3.569-1.145-1.515-3.266-6.23-1.111-1.549-6.5-6.027-.27-.505-.168-.606.034-.875.3-1.078 1.953-3.064.741-1.818.2-1.145-.1-.538-.3-.606-.707-1.044-3.906-4.142-.438-.236-.707-.067-1.111.236-.774-.135-.741-.471-.606-.673-1.111-2.122-.505-.775-.337-.37-.707-.573-.842-.471-3.637-1.516-.674-.539-.269-.337-4.31-7.577-2.189-4.714-1.313-3.57-1.01-3.7-.674-4.411-.1-4.243.505-4.041.2-.673.371-.674.572-.673 1.515-1.347 3.1-2.256 1.448-1.448.4-.707-.1-.4-.371-.438-3.771-2.29-.438-.4-1.414-1.515-.808-1.28-.505-1.683 5.051-2.223 1.717-.437 9.294 1.145h.842l.64-.1 3.4-1.885 1.515-.505 1.448-.741 2.458-2.088 1.078-.673 3.3-1.111.842-.135h.673l.775.337 1.616 1.044.808.639.539.707.4.808.269.842z" class="prefix__cls-2" transform="translate(-288.388 -650.73)"/>
        <path id="prefix__TUN112" d="M260.772 895.969l-1.448.741-1.515.505-3.4 1.886-.64.1h-.842l-9.294-1.145-1.717.438-5.051 2.222-10.944 1.751-1.28-.1-1.448-.505-.741.169-3.233 1.246-1.852.909-.606.707-.236.37-.236.741-.1.741-.034 2.189-.236.774-.539.674-.539.269-.539.034-5.152-.539-3.165-.842h-.606l-.707.135-2.93 1.28-14.142 1.312-4.445-.943-3.132-.27-18.049 1.082-.37-.337-.4-.64-.741-2.357-.337-1.38-.2-.472-.337-.539-1.078-1.111-1.414-1.078-.471-.3-6.2-2.121-3.064-.3-.37-.135-.741-.573-.673-1.01-1.01-1.751-1.215-1.796-.707-.774-1.515-1.448-6.028-4.007-.269-.4-.034-.572.505-1.044.438-.707 2.93-3.6.37-.337.774-.236 3.94-.505.4-.2.236-.3.034-.471-.4-.741-.3-.438-2.9-2.862-.168-.573V876l1.347-5.186-.034-.976-.64-1.852-.37-.337 3.4-3.031 1.953-1.179.64-.674.37-.707.572-1.717.505-.842 2.963-1.852.64-1.145-2.121-3.334.236-1.549.943-1.515 2.66-2.795.1-.168 1.01.1 3.064.37 1.145.572 1.01.876 1.65.909 8.991 3 1.145.842 5.724 3.266 1.145.438.707.034.269-.741.471-1.852.337-.64.673-.674.842-.539 8.418-4.243.741-.236 3.7-.539 1.549-.573 2.424-1.313 13.3 5.32 7.913.067 8.519 1.583 5.051 2.694.64.269.505.1.337-.034.707-.269 1.179-.606.539-.236.774-.1.4.168.236.3-.067.808-1.953 5.051-.168.774-.067.808.034.505.168.808.505 1.313.3.573.909 1.246 1.751 1.886 2.189 1.886.774.539.606.337 5.186 1.919.64.438.707.774 1.212 1.919.471.606.674.674 2.155 1.684.572.337 3.872 1.886.943.64.572.572.2.741z" class="prefix__cls-2" transform="translate(-88.745 -560.592)"/>
        <path id="prefix__TUN113" d="M378.339 624.872l2.256 2.93.606 1.246v.674l-.4 3.165-.337 1.212-.539 3.064.067.606.37.741.37.505 6.2 5.792.539.3 1.448.37.909.034 1.145-.135.505.067.471.2 5.079 5.357.236.337.673 1.448.539.707.741.808.673.471.774.471 2.323.875 6.028 1.212 7.375 2.357.808.1.337-.067 4.108-1.482.505.337.471.774 2.9 10.237.438.842 1.549 2.189L421.1 687.1l-9.462 15.625-1.848 3.975-.573 1.482-.236.876-.2 1.381v1.01l.471 2.02.3.674.505.37 8.89 1.078 1.785.505 6.667 3.367.337.3.4.505.1.808-.269 1.785-.438 1.717-.471 1.111-.572.674-.337.3-3.94 2.02-.741.64-1.246 1.414-.337.3-.808.235-1.852-.034-1.111.169-.673.336-.539.37-3.064 2.694-.775.539-1.616.875-4.916 1.684-2.323 1.246-1.01.977-.774.943-.3.539-.1.471.438.673 1.381 1.212.539.741.471.774.572 1.381.269 1.179.067 1.078-.135.572-.3.371-.673.236-.673-.067-.673-.27-1.616-.808-.269-.842-.4-.808-.539-.707-.808-.64-1.616-1.044-.774-.337h-.685l-.842.135-3.3 1.111-1.078.673-2.458 2.088.37-11.786-.2-.741-.572-.573-.943-.64-3.872-1.886-.572-.337-2.155-1.684-.673-.674-.471-.606-1.212-1.919-.707-.775-.64-.438-5.186-1.919-.606-.337-.774-.539-2.189-1.886-1.751-1.886-.909-1.246-.3-.573-.505-1.313-.168-.808-.034-.505.067-.808.168-.775 1.953-5.051.067-.808-.236-.3-.4-.169-.774.1-.539.236-1.179.606-.707.269-.337.034-.505-.1-.64-.269-5.051-2.694-8.519-1.583-7.913-.067-13.3-5.32 20.17-11.651.741-.674-.135-.336-.269-.269-1.179-.64-.64-.674-.4-.774-.1-.4.236-.606.539-.808 2.694-3.031.505-.808.775-1.785.606-1.212.808-1.111.471-.438.471-.2 1.414.4.673.1.438-.067 3.233-1.684 4.142-1.313 2.121-1.212.606-.572.37-.472.168-.673v-.674l-.135-.505-.673-1.583-.37-1.01-.168-1.044-.1-1.751.067-1.212.707-4.243.034-1.078-.2-.875-.505-.741-.37-.269-.876-.471-6.177-1.946-.976-.64-.37-.505-.168-.64.067-1.145.371-1.549 1.28-3.2.471-.707.438-.505.808-.539 1.28-1.111.707-1.01.943-2.761.3-.674.337-.539.707-.741.808-.606 2.862-1.684 1.111-1.044.943-1.044.438-.673.3-.606.337-1.448.168-1.751 4.378-1.279h1.549z" class="prefix__cls-2" transform="translate(-214.898 -413.413)"/>
        <path id="prefix__TUN115" d="M359.979 334.605l6.7 6.465 2.02 1.347.842-.168 4.748-1.751 1.179-.168h1.111l.64.135.539.236 1.448 1.01 4.277 2.357 1.044.2.673-.135 3.266-5.96.977-1.347.3-.337.673-.572.741-.37 2.458-.438 4.714-.3 1.044.067.775.269 1.111.606.741.505 1.818 1.919.505.37.741.438.977.168.707-.135.741-.3 3.536-1.919 1.347-.572 1.818-.4 4.95-.539 1.179 2.223.37 1.953-.1 1.28-.842 2.626-.673 1.212-1.111 1.549-1.65 1.987-1.616 1.515-5.388 3.367-2.02.808-.438.269-.64.606-.1.471.1.471.269.4 3.031 2.9.842.64.875.539 3.7.977 4.041 1.515.808.505.337.269.337.673.337 1.044.438 2.222.135 1.818-.236.842-.269.808-.438.808-1.482 2.088-17.948 14.85-1.111 1.313-.606.875v.808l.606 2.424.135.842.034.876-.2 1.246-1.179 3.2-.1.808.135 1.01.2.572.505.808.606.774.539.572.269.4.2.505-.034.909-.572.606-2.088.471-1.549.674-3.468 2.222-.876.269-.842.1-.909-.034-1.01-.168-5.758-1.919-.539-.034-.606.135-.875.471-.37.438-.1.438.1.438.337.741 11.045 13.57 3.266 6.263.2 1.246-4.546-.572h-1.549l-4.378 1.28-.1-.707-.2-.673-.539-1.145-.471-.707-.64-.674-.673-.539-3-1.818-1.684-.842-2.054-.37-.471-.269-.471-.438-.606-.976-.977-2.323-.505-.505-.774-.505-3.266-1.515-.337-.034-.741.135-1.111.471-.741.135-.707-.168-1.549-1.785-5.085-7.273 1.145-3.906.1-.741.371-3.771v-4.007l.1-.842.2-.673.269-.505.3-.337 2.93-2.458.471-.842.3-.808.236-.876.269-1.515.3-.741 1.179-1.818 1.987-2.189.438-.741.471-1.145.572-2.256.438-2.761.1-1.785-.269-.842-.471-1.01-1.28-2.054-.707-.876-.64-.606-5.051-2.593-1.056-.775-.337-.539-.269-.707-.135-1.381-.034-.741.168-2.121v-1.448l-.1-.842-.572-1.414-1.621-2.66-2.121-2.627-.842-1.414-.168-.572-.1-.741.067-1.347.2-.674.236-.572.269-.4.539-1.179.1-.775-.034-.774-.1-.471-1.01-2.088-3.836-5.863 3.5-1.347 1.583-.3 1.381.135 1.313.37z" class="prefix__cls-2" transform="translate(-232.939 -220.934)"/>
        <path id="prefix__TUN116" d="M694.521 606.909l9.563 3.2 5.623 1.111 3.1.135.808-.1.573-.135.236-.3.674-1.616.943-1.448.673-.808 1.28-1.246 1.818-1.347 1.852-1.044 6.836-2.559.067.774.741 2.189 1.246 1.549 3.772 1.179-2.222 2.021-.606 2.727-.4 2.526.3 4.378-1.01 2.088.438 3.67 1.953 3.132 2.9 3.67 1.709 1.345 2.054.943 1.111.606-.135 1.953-2.256.067-1.65 1.246-1.583 3.2-2.425 2.054-1.145 2.256-1.145 2.425-1.583 1.414h-.1l-3.872-.741-1.179-.707-2.29-3.94-.876-1.212-.943-1.044-.573-.3-.438.034-.3.337-1.044 1.448-.471.269-.673.168-1.145-.067-.64-.3-.472-.4-.4-.842-1.145-3.064-.3-1.111-.606-3.569-.808-1.515-1.01-1.212-.505-.269-.37.1-1.28 2.761-.539.808-.3.37-.774.707-.808.471-1.044-.067-7.341-2.155-.673.2-.4.572-.168.674-.4.707-.37.3-1.549.909-.4.64-.067.774.067.674-.135.471-.438.674-1.414 1.347-1.616 1.178-9.126 4.344-1.145.3-1.111-.034-.673-.37-2.324-1.616-.4-.236-.673-.2-9.462-1.65.135-3.872-.1-1.313-.438-1.111-1.987-2.9-.37-.707-.2-.673-.067-.505v-.977l.269-2.795-.034-1.01-.2-1.616-.2-.741-.236-.673-.673-1.414-.37-1.111.135-.808.337-1.145 2.559-6.331.909-1.515 1.717-2.155.37-.707.067-.774-.067-.775-1.246-3.334-.034-.4.1-.471.236-.471.539-.775 1.583-1.078 3.6-1.212-.606 2.391-.1.842.135 1.044.2.472.64.741 1.919 1.482.977 1.178.471.236.573.135 2.593-.606.774.034 2.9.842.876.5.3.4.37.943.135 1.886.135.539.269.4.4.337 4.782 2.122.471.1.505-.067.471-.168.4-.471.37-.606.438-1.145.236-.539.371-.505 2.02-1.078.505-.943z" class="prefix__cls-2" transform="translate(-436.694 -396.898)"/>
        <path id="prefix__TUN117" d="M777.978 558.166l-6.836 2.559-1.852 1.044-1.818 1.347-1.28 1.246-.673.808-.943 1.448-.674 1.616-.236.3-.573.135-.808.1-3.1-.135-5.624-1.111-9.563-3.2-.741-.707-1.953-.775-.505-.067-.438.135-.337.269-.337.572-.27.943-.64 1.145-.539.3-.64.135-1.684-.2-.707-.236-.707-.573-.505-.943v-.64l.135-1.111.2-.505.337-.3 2.626-1.179.741-.505.3-.4.2-.471-.034-.707-.2-.471-.774-1.111v-.4l.236-.438.707-.539.909-.4 1.852-.4 2.93-1.044 1.347-.842.64-.539.4-.741.37-1.078.505-3.3.034-.741-.3-3.165-.034-1.886.034-.438.808-1.515 3.233-3.974.2-.269.2.2 1.583.842 2.525.977 4.95-1.751.842.2.741.471 1.515 1.414-.909 1.347-.471 1.987.4 2.054.943 1.482 3.334 1.583 7.442 2.93 3.3-.37 2.391 2.02 1.145 2.357-3.132 1.246-.4 2.357z" class="prefix__cls-2" transform="translate(-486.173 -354.316)"/>
        <path id="prefix__TUN118" d="M524.025 488.038l-3.6 1.212-1.583 1.077-.539.775-.236.471-.1.471.034.4 1.246 3.334.067.775-.067.774-.37.707-1.717 2.155-.909 1.515-2.559 6.331-.337 1.145-.135.808.371 1.111.673 1.414.236.674.2.741.2 1.616.034 1.01-.269 2.795v.977l.067.505.2.673.37.707 1.987 2.9.438 1.111.1 1.313-.135 3.872-2.054.2-1.01.4-1.751 1.145-3.266 2.9-4.31 5.017-1.549 2.424-.64 1.246-1.549-2.189-.438-.842-2.9-10.237-.471-.774-.505-.337-4.108 1.482-.337.067-.808-.1-7.375-2.357-6.028-1.212-2.323-.875-.774-.472-.673-.471-.741-.808-.539-.707-.673-1.448-.236-.337-5.085-5.354-.471-.2-.505-.067-1.145.135-.909-.034-1.448-.37-.539-.3-6.2-5.792-.37-.505-.37-.741-.067-.606.539-3.064.337-1.212.4-3.165v-.673l-.606-1.246-2.244-2.928-.2-1.246-3.266-6.263-11.045-13.57-.337-.741-.1-.438.1-.438.37-.438.876-.471.606-.135.539.034 5.758 1.919 1.01.168.909.034.842-.1.875-.269 3.468-2.222 1.549-.674 2.088-.471.572-.606.034-.909-.2-.505-.269-.4-.539-.572-.606-.775-.505-.808-.2-.572-.135-1.01.1-.808 1.178-3.2.2-1.246-.034-.875-.135-.842-.606-2.424v-.808l.606-.875 1.111-1.313 17.948-14.85 1.751.64.741.168 1.684.1 7.307-1.044 2.9-.067 2.593 1.583.774.337 3.266.606 1.145.606.573.472 2.222 2.222.4.236.505-.034.505-.337.64-1.044.269-.707.168-.572.539-3.6.236-.943.438-.471.876 1.078.539.067.64-.3 1.145-1.145.539-.673.707-1.347 1.347-.943 4.917-1.65-2.728 5.017.034 1.482 4.546 2.424.438.438.472.707.741 1.414.269.741.1.673-.741 4.681-.977 3.738-.539 1.583-.168.337-.875 1.414-3.906 4.916-.438.775-.1.37v.438l.236.707 9.328 18.958.808 1.145.64 1.28z" class="prefix__cls-2" transform="translate(-290.51 -285.536)"/>
        <path id="prefix__TUN119" d="M686.241 360.792l-.875 1.313-1.145 3.872-1.145 4.243-.976 4.18-.2 5.253-.168 5.388.4 3.4 1.044 3.435.606 1.852.4.64.37 1.01.472 2.222.3.943 1.818 2.761 1.313 1.515 1.145.64.977.976 2.155 6.7 1.111 1.347 5.691 5.388-.2.269-3.233 3.973-.808 1.515-.034.438.034 1.886.3 3.165-.034.741-.505 3.3-.371 1.078-.4.741-.64.539-1.347.842-2.93 1.044-1.852.4-.909.4-.707.539-.236.438v.4l.774 1.111.2.471.034.707-.2.471-.3.4-.741.505-2.626 1.179-.337.3-.2.505-.135 1.111V447l.505.943.707.572.707.236 1.684.2.64-.135.539-.3.64-1.145.269-.943.337-.572.337-.269.438-.135.505.067 1.953.775.741.707-.774 3-.505.943-2.021 1.078-.37.505-.236.539-.438 1.145-.37.606-.4.471-.471.168-.505.067-.471-.1-4.782-2.121-.4-.337-.269-.4-.135-.539-.135-1.886-.37-.943-.3-.4-.876-.505-2.9-.842-.775-.034-2.593.606-.572-.135-.471-.236-.977-1.179-1.919-1.482-.64-.741-.2-.471-.135-1.044.1-.842.606-2.391-1.01-3.3-.64-1.28-.808-1.145-9.335-18.976-.236-.707v-.438l.1-.37.438-.775 3.906-4.916.875-1.414.168-.337.539-1.583.977-3.738.741-4.681-.1-.673-.269-.741-.741-1.414-.471-.707-.438-.438-4.546-2.424-.034-1.482 2.728-5.018 2.155-.943.808-.438.707-.539.3-.337.337-.606.337-.875.4-1.684.135-.842v-.673l-.4-1.28.034-.4.2-.37.572-.37.438-.2 5.926-1.212.3-.37.135-.572-.236-1.077-.4-.64-.606-.876.067-.4.471-.505 1.111-.876.337-1.717-.068-5.859 5.085-.909 1.65.37.539.4.842.471.539-.034.573-.236.606-.4 1.078-.505.64-.135.471.034.606.572.875 1.886z" class="prefix__cls-2" transform="translate(-434.306 -236.985)"/>
        <path id="prefix__TUN120" d="M545.132 275.816l1.65 3.064.539.64.842.842.539.269.438.1.707-.135.842-.4.977.2 1.448.471 3.3 1.549 2.256 1.684.2.438 7.475 6.869.707 1.01-.168.774.1.505.2.606.64 1.01.438.168.471-.034.337-.269 3.064-1.785.775-.3.741-.2 1.919-.2-.168 7.24.236 2.088.471.775.3.3.64.337.505.067.067 5.859-.337 1.717-1.111.876-.471.505-.067.4.606.876.4.64.236 1.078-.135.572-.3.37-5.927 1.212-.438.2-.572.37-.2.371-.034.4.4 1.28v.673l-.135.842-.4 1.684-.337.875-.337.606-.3.337-.707.539-.808.438-2.155.943-4.916 1.65-1.347.943-.707 1.347-.539.673-1.145 1.145-.64.3-.539-.067-.875-1.078-.438.471-.236.943-.539 3.6-.168.572-.269.707-.64 1.044-.505.337-.505.034-.4-.236-2.222-2.223-.573-.471-1.145-.606-3.266-.606-.774-.337-2.593-1.583-2.9.067-7.307 1.044-1.684-.1-.741-.168-1.751-.64 1.482-2.088.438-.808.269-.808.236-.842-.135-1.818-.438-2.222-.337-1.044-.337-.673-.337-.269-.808-.505-4.041-1.515-3.7-.977-.876-.539-.842-.64-3.031-2.9-.269-.4-.1-.471.1-.471.64-.606.438-.269 2.021-.808 5.388-3.367 1.616-1.515 1.65-1.987 1.111-1.549.673-1.212.842-2.621.1-1.28-.37-1.953-1.179-2.223 1.01-2.492 2.424-3.5.505-1.347 1.515-1.65 4.849-4.074 2.525-.808.808-.741 1.347-3.233 1.347-2.458.471-.539.438-.337.707-.168.673.034.337.2.505.64z" class="prefix__cls-2" transform="translate(-339.128 -181.204)"/>
        <path id="prefix__TUN97" d="M224.022 1098.513l4.782 5.051 1.549 1.347 1.751.606 1.448.37.775.034.741-.067.606.033.876.2 1.616.539.707.471.4.4.135.707v7.442l-.1.707-.236.707-1.145 2.727-.4 1.414.067.976.337.573.774.841 3.334 2.559 1.987 2.155.337.707v.539l-.337.2-.741.3-1.044.27-.673.4-.236.3-.3.673-.067.4.1 1.785.337 3.165.236.707.606 1.01.438.842.1.539-.034.472-.168.37-.943 1.549-2.054 2.458-.4.775-.236 2.054-.135 3.973.067.842.1.337 3.3 5.859.438 1.145-.2.37-.3.2-.774.034-.4-.1-.909-.371-2.054-1.178-8.89-7.172-2.593-3.3-1.078-.909-.673-.4-1.515-.539-1.246-.3-1.01-.067-2.66.235-2.189.472-1.987.707-1.717 1.044-3.334 2.862-.876.539-2.088.943-96.524 19.986-1.515.472-.135-.135-.943-3.233-.808-10.068-1.111-13.773-1.111-3.131-8.351-13.064-7.779-12.223-1.818-1.111-1.717.37-1.751-.136-1.684-.505-1.583-.842-9.126-6.6-3-1.044-3.94-.371-3.031-.909-2.121-2.323-1.246-4.613-.135-13.065 1.381-.842 15.894-7.88 50.679-41.048 4.479-5.59 6.634-11.954 14.143-1.313 2.93-1.28.707-.135h.606l3.165.842 5.152.539.539-.033.539-.27.539-.673.236-.775.034-2.189.1-.741.236-.741.236-.37.606-.707 1.852-.909 3.233-1.246.741-.168 1.448.505 1.28.1 10.944-1.751.505 1.683.808 1.28 1.414 1.515.438.4 3.771 2.29.37.438.1.4-.4.707-1.448 1.448-3.1 2.256-1.515 1.347-.572.673-.37.674-.2.673-.505 4.041.1 4.243.673 4.411 1.01 3.7 1.313 3.569 2.189 4.714 4.31 7.576.269.337.673.539 3.637 1.515.842.472.707.573.337.37.505.775 1.111 2.121.606.674.741.471.774.135 1.111-.236.707.068.438.236 3.906 4.142.707 1.044.3.606.1.539-.2 1.145-.741 1.818-1.953 3.064-.3 1.077-.034.875.168.606.269.505 6.5 6.027 1.111 1.549 3.266 6.23 1.145 1.516 3.3 3.569z" class="prefix__cls-2" transform="translate(-37.01 -667.974)"/>
        <path id="prefix__TUN98" d="M443.868 1383.22l-25.423 12.224-2.256 2.391-3.3 7.745-2.694 2.694-3 1.852-2.761 2.256-1.616.505-1.482-.606-1.482-.842-1.549-.236-1.852 1.987-.707 7.778-1.078 3.233-3.468 3.232-1.381 3.367-.977 1.448-1.212 1.246-1.347 1.078-4.512 1.785-9.227-.135-4.243 3.434-5.556 9.833-5.253 5.927-1.28 2.222-.875 6.3.135 1.65 6.162 16.5 2.492 10.136 2.593 5.489.135 1.785-.471 3.7.37 3.4 2.054 6.735-.034 3.2-1.28 3.872-5.085 10.573-7.509 8.587-8.688 14.075-10.2 13.3-2.121 1.212-5.994.4-2.424.64-18.419 9.765-2.323-10.506-4.647-20.979-4.683-21.072-2.323-10.54-4.681-21.147-2.323-10.573-2.323-10.607-2.357-10.607-4.647-21.248-2.357-10.641-2.323-10.641-2.323-10.675-1.717-7.981-.943-1.852-1.145-1.381-13.84-10.034-17.207-12.493-13.166-9.563-10.068-6.465-2.256-2.458 1.515-.471 96.508-19.968 2.088-.943.876-.539 3.334-2.863 1.717-1.044 1.987-.707 2.189-.472 2.66-.236 1.01.068 1.246.3 1.515.539.673.4 1.078.909 2.593 3.3 8.89 7.173 2.054 1.178.909.371.4.1.774-.034.3-.2.2-.37-.438-1.145-3.3-5.859-.1-.337-.067-.842.135-3.974.236-2.054.4-.774 2.054-2.458.943-1.549.168-.37.034-.472-.1-.539-.438-.842-.606-1.01-.236-.707-.337-3.165-.1-1.785.067-.4.3-.673.236-.3.673-.4 1.044-.269.741-.3.337-.2v-.539l-.337-.707-1.987-2.155-3.334-2.559-.774-.842-.337-.573-.067-.976.4-1.414 7.105-.168 1.785-.269 2.054-.572 2.795-1.179.606-.539 1.717-2.458 1.01-.909 1.01-.741.572-.269.505-.169 1.515.1 4.209.842h1.01l.572-.2.37-.27.572-.774.741-.471 5.623-2.425 1.078-.741 14.446-6.432.673-.2.741-.068 2.862.4 6.364-.775.808.1.236.337v.673l-.808 1.347-.236 1.044-.2.3-1.65.606-.371.606.168.707.573.708.808.64.775.438 1.448.438 3.805.472 1.785.4 22.763 10.741.842.674.505.808 1.078 4.613.236.505.505.808.606.74 3.5 3.2 1.044.707 1.01.539.976.741.4.707.236 1.01v.673l-.27 1.684-.438 1.583-1.078 2.862-.135.707-.1.808.337 8.418-.1 1.212-.774 3.064-.067.775.135.37.269.37 21.652 17.982.741.437.606.236.606.068 2.357-.438.673.034.37.236.168.4-.3.808-.539.741-.741.707-2.963 2.189-1.28.64-3.906 1.448-1.616.977-1.482 1.111-1.448 1.313-1.381 1.616-5.354 10.068z" class="prefix__cls-2" transform="translate(-138.225 -851.964)"/>
        <circle id="prefix___0" class="prefix__cls-2" data-name="0" transform="translate(277.964 271.97)"/>
        <circle id="prefix___1" class="prefix__cls-2" data-name="1" transform="translate(277.426 63.565)"/>
        <circle id="prefix___2" class="prefix__cls-2" data-name="2" transform="translate(168.896 195.936)"/>
        <path id="prefix__TUN103" d="M401.08 151.385l9.631 9.024 4.647 1.616 2.223.168.471.269.269.337.3 1.145.606 1.65 2.694 5.657 3.233 4.782.842 1.919-4.849 4.074-1.515 1.65-.505 1.347-2.424 3.5-1.01 2.492-4.95.539-1.818.4-1.347.572-3.536 1.919-.741.3-.707.135-.977-.168-.741-.438-.505-.37-1.818-1.919-.741-.505-1.111-.606-.774-.269-1.044-.067-4.714.3-2.458.438-.741.37-.673.572-.3.337-.977 1.347-3.266 5.96-.673.135-1.044-.2-4.276-2.357-1.448-1.01-.539-.236-.64-.135h-1.111l-1.179.168-4.748 1.751-.842.168-2.02-1.347-6.7-6.465 1.549-.876.4-.269.3-.37.2-.741.067-2.93.168-.977.3-.741.539-.741 1.313-1.482.269-.37-.1-1.179-.505-1.886-2.761-7.408-.64-.842-.3-.572-.236-.707-.168-1.919.539-5.152-.2-.909-.438-.539-.775-.64-1.246-.707-4.714-.775-.438-.168-.842-.606-.3-.4-.1-.438.168-.572.4-.875.269-1.111.034-.909.1-.572.37-.842.337-.337 3.031-2.525.539-.774-.067-.673-.3-.842-1.549-2.559-3.132-3.6-.236-.438-.1-.505.2-.741.269-.3.539-.269 1.549-.572.269-.236-.539-1.078-3.566-3.806.64-.269 1.818-1.785 2.559-3.132 2.526-4.916 1.111-.741.808-.4 2.29-2.458.876-.539 2.492-1.01.1.471.2 3.536-.135 1.583-.471 2.222-.135 1.448.236 1.179.37.909.337.438.4.269.37.067 5.118-.1.539.2.572.37 1.044.909.842 1.111.3.774.774 2.559 1.987 4.344 1.078 2.963.438.774.4.572 2.728 2.593.741.505.774.4 2.963.977.977.64.842.707.471.977-.034 1.246-.269 1.313-.64 1.751-.2.4-.471 1.347.067.64.168.943.673 1.919.505.909.438.64 1.111.707.37.168.741.135h.707l.775-.3.774-.64 7.913-8.351.775-.673.775-.471.909-.3z" transform="translate(-229.49 -76.673)" style="fill:#0ce0ff;stroke:#0ce0ff;stroke-linecap:round;stroke-linejoin:round"/>
    </g>
</svg>
