<svg xmlns="http://www.w3.org/2000/svg" width="74.125" height="102.284" viewBox="0 0 74.125 102.284">
    <defs>
        <style>
            .prefix__cls-1{fill:#386dda;stroke:#386dda;stroke-width:.5px}
        </style>
    </defs>
    <g id="prefix__human-bone" transform="translate(.276 .25)">
        <path id="prefix__Tracé_149" d="M94.517 83.334L126.632 24.8c.025-.052.643-1.293 2.8-1.293a10.746 10.746 0 0 1 4.04.98 5.8 5.8 0 0 0 2.248.488c3.042 0 4.446-2.793 4.63-3.192a10.212 10.212 0 0 0-4.05-13.838 5.19 5.19 0 0 0-2.559-.6 15.272 15.272 0 0 0-1.906.158 13.432 13.432 0 0 1-1.627.14 3.006 3.006 0 0 1-1.49-.322 5.172 5.172 0 0 1-1.827-2.531 7.054 7.054 0 0 0-2.769-3.531 10.2 10.2 0 0 0-13.843 4.007 5.1 5.1 0 0 0 1.417 7.261c4.939 3.413 3.464 5.836 3.409 5.922l-32.12 58.54c-.025.051-.642 1.293-2.8 1.293a10.745 10.745 0 0 1-4.04-.98 5.8 5.8 0 0 0-2.248-.488c-3.042 0-4.446 2.793-4.63 3.192a10.223 10.223 0 0 0 4.054 13.834 5.189 5.189 0 0 0 2.559.6 15.268 15.268 0 0 0 1.906-.158 13.439 13.439 0 0 1 1.627-.14 3.005 3.005 0 0 1 1.49.322 5.172 5.172 0 0 1 1.827 2.531 7.055 7.055 0 0 0 2.769 3.531 10.2 10.2 0 0 0 13.843-4.007 5.1 5.1 0 0 0-1.416-7.261c-4.939-3.416-3.464-5.839-3.409-5.924zm41.2-60.124a4.058 4.058 0 0 1-1.564-.35 12.452 12.452 0 0 0-4.724-1.118c-3.109 0-4.192 1.893-4.372 2.257l-1.566 2.855-4.721-2.36a.881.881 0 1 0-.788 1.576l4.661 2.33-2.487 4.533-2.686-1.316a.881.881 0 0 0-.77 1.583l2.613 1.28-26.3 47.936a3.941 3.941 0 0 0-.447 2.78c.339 1.892 1.8 3.746 4.357 5.51a3.393 3.393 0 0 1 .933 4.861.786.786 0 0 0-.041.068 8.44 8.44 0 0 1-11.469 3.344 5.561 5.561 0 0 1-2.024-2.74 6.6 6.6 0 0 0-2.572-3.322 4.746 4.746 0 0 0-2.338-.54 14.945 14.945 0 0 0-1.846.154 13.844 13.844 0 0 1-1.687.144 3.438 3.438 0 0 1-1.711-.38 8.436 8.436 0 0 1-4.261-6.007l2.254 1.2a.881.881 0 1 0 .829-1.555l-3.11-1.659c-.022-.012-.046-.018-.069-.028a8.37 8.37 0 0 1 .421-2.07l8.968 4.895a.881.881 0 1 0 .844-1.547l-9.092-4.959a3.534 3.534 0 0 1 2.94-1.99 4.058 4.058 0 0 1 1.564.35 12.453 12.453 0 0 0 4.724 1.118c3.107 0 4.191-1.892 4.371-2.257l1.566-2.855 4.721 2.36a.881.881 0 1 0 .789-1.576l-4.661-2.33 1.919-3.5 2.092 1.046a.881.881 0 0 0 .788-1.576l-2.032-1.016L116.6 19.37a3.941 3.941 0 0 0 .447-2.78c-.339-1.892-1.8-3.746-4.357-5.51a3.393 3.393 0 0 1-.934-4.861.786.786 0 0 0 .041-.068 8.44 8.44 0 0 1 11.473-3.345 5.564 5.564 0 0 1 2.024 2.74 6.6 6.6 0 0 0 2.572 3.322 4.747 4.747 0 0 0 2.338.54 14.9 14.9 0 0 0 1.846-.154 13.762 13.762 0 0 1 1.687-.144 3.437 3.437 0 0 1 1.711.38 8.394 8.394 0 0 1 4.047 5.044 8.6 8.6 0 0 1 .22.966l-2.259-1.2a.881.881 0 0 0-.829 1.555l3.11 1.659c.024.013.049.023.073.033a8.361 8.361 0 0 1-.424 2.065l-8.972-4.894a.881.881 0 0 0-.844 1.547l9.092 4.959a3.534 3.534 0 0 1-2.941 1.986z" class="prefix__cls-1" data-name="Tracé 149" transform="translate(-68.024)"/>
        <path id="prefix__Tracé_150" d="M212.772 153.33a.881.881 0 0 0-1.2.349l-17.359 31.642a.881.881 0 1 0 1.545.848l17.359-31.642a.881.881 0 0 0-.345-1.197z" class="prefix__cls-1" data-name="Tracé 150" transform="translate(-167.964 -121.451)"/>
    </g>
</svg>
