<svg xmlns="http://www.w3.org/2000/svg" width="102.328" height="88.03" viewBox="0 0 102.328 88.03">
    <path id="prefix__tooth-and-gums" d="M100.965 90.669a27.851 27.851 0 0 1-17.55-8.169c.084-.457.165-.905.24-1.34.447-2.6.767-5.005 1-7.112 7.914 7.361 15.942 7.45 16.3 7.45a.881.881 0 0 0 0-1.762c-.083 0-8.35-.092-16.073-7.929.284-3.183.342-5.358.354-5.962.527-.8 1.054-1.625 1.571-2.481 5.455-9.039 6.938-16.321 4.409-21.645-2.49-5.242-7.107-7.655-13.725-7.174-5.28.384-10.644 2.539-13.849 3.826-.439.176-.837.336-1.19.473a35.26 35.26 0 0 1-11.113 2.067 35.164 35.164 0 0 1-11.113-2.067c-.353-.137-.751-.3-1.19-.473-3.2-1.287-8.569-3.442-13.849-3.826-6.619-.481-11.235 1.932-13.725 7.174-2.536 5.319-1.052 12.601 4.402 21.64.557.922 1.125 1.812 1.692 2.663 0 .354.043 2.435.329 5.669A26.757 26.757 0 0 1 .9 79.731a.881.881 0 0 0-.037 1.762h.105a26.281 26.281 0 0 0 17.138-7.556c.229 2.109.553 4.549 1.012 7.217.072.417.149.847.229 1.283C11.612 90.3.967 90.666.86 90.669a.881.881 0 0 0 .022 1.762H.9a31.154 31.154 0 0 0 18.845-7.924A94.367 94.367 0 0 0 29.7 112.1c3.842 6.719 6.86 9.907 9.411 9.907a3 3 0 0 0 .773-.1c3.609-.959 4.367-8.561 4.367-14.769 0-.456 0-.986-.01-1.575a82.625 82.625 0 0 1 .882-15.014c1.1-5.92 3.207-9.061 6.265-9.338 3.057.276 5.165 3.417 6.265 9.338a82.6 82.6 0 0 1 .882 15.013c-.005.59-.01 1.119-.01 1.576 0 6.208.757 13.81 4.367 14.769 2.71.72 5.947-2.4 10.184-9.806a94.313 94.313 0 0 0 9.939-27.534 29.169 29.169 0 0 0 17.916 7.865h.018a.881.881 0 0 0 .017-1.762zM13.047 42.47c2.177-4.583 6.1-6.6 12-6.172 5.006.364 10.211 2.455 13.32 3.7.445.179.85.341 1.208.48a36.421 36.421 0 0 0 11.752 2.187 36.422 36.422 0 0 0 11.752-2.187c.358-.139.763-.3 1.208-.48 3.11-1.249 8.314-3.34 13.32-3.7 5.9-.429 9.828 1.59 12 6.172a13.011 13.011 0 0 1 .673 8.168c-2.633-4.09-6.93-5.946-12.805-5.519-5.28.384-10.644 2.539-13.849 3.826-.439.176-.837.336-1.19.473a35.267 35.267 0 0 1-11.113 2.067 35.165 35.165 0 0 1-11.113-2.067c-.353-.137-.751-.3-1.19-.473-3.2-1.287-8.569-3.442-13.849-3.826-5.876-.428-10.173 1.429-12.806 5.519a13.011 13.011 0 0 1 .682-8.168zm58.5 68.756c-5 8.742-7.4 9.191-8.2 8.978-1.828-.486-3.056-5.736-3.056-13.065 0-.452 0-.976.01-1.56a84.073 84.073 0 0 0-.912-15.351c-1.272-6.848-3.94-10.474-7.931-10.779a.85.85 0 0 0-.134 0c-3.99.3-6.659 3.931-7.931 10.779a84.073 84.073 0 0 0-.912 15.351c.005.584.01 1.108.01 1.56 0 7.329-1.228 12.58-3.056 13.065-.8.213-3.2-.236-8.2-8.978a80.08 80.08 0 0 1-5.987-13.289h7.972a.881.881 0 1 0 0-1.762h-8.57a113.887 113.887 0 0 1-5.211-27.457 77.624 77.624 0 0 0 5.23 6.482.881.881 0 0 0 1.293-1.2 79.1 79.1 0 0 1-10-14.044h5.408a.881.881 0 1 0 0-1.762h-6.318a35.879 35.879 0 0 1-2.043-5.066c2.182-4.545 6.163-6.682 12.042-6.254 5.006.364 10.211 2.455 13.32 3.7.445.179.85.341 1.208.48a36.421 36.421 0 0 0 11.752 2.187 36.421 36.421 0 0 0 11.752-2.187c.358-.139.763-.3 1.208-.48 3.11-1.249 8.314-3.34 13.32-3.7 5.867-.427 9.853 1.739 12.038 6.267-.3.975-.664 1.953-1.072 2.925h-6.143a.881.881 0 0 0 0 1.762h5.351A76.224 76.224 0 0 1 76.7 74a.881.881 0 0 0 1.294 1.2 77.881 77.881 0 0 0 5.356-6.65c-.361 6.106-1.951 22-8.908 37.044H64.205a.881.881 0 1 0 0 1.762h9.4q-.968 1.953-2.061 3.87z" transform="translate(.249 -34.229)" style="fill:#386dda;stroke:#386dda;stroke-width:.5px" />
</svg>