<svg xmlns="http://www.w3.org/2000/svg" width="103.344" height="60.946" viewBox="0 0 103.344 60.946">
    <defs>
        <style>
            .prefix__cls-1{fill:#386dda;stroke:#386dda;stroke-width:.5px}
        </style>
    </defs>
    <g id="prefix__human-eye" transform="translate(.296 .25)">
        <path id="prefix__Tracé_134" d="M171 179.982a20.648 20.648 0 1 0-20.648-20.648A20.672 20.672 0 0 0 171 179.982zm-8.488-37.515l3.463 9.114a9.307 9.307 0 0 0-3.258 3.654l-9.439-2.43a18.994 18.994 0 0 1 9.229-10.338zm8.488 9.385a7.482 7.482 0 1 1-7.482 7.482 7.49 7.49 0 0 1 7.482-7.482zm-18.254 2.636l9.34 2.4a9.2 9.2 0 0 0-.312 1.9l-5.8.38a.881.881 0 0 0 .057 1.761h.059l5.747-.377a9.249 9.249 0 1 0 5.711-9.79l-3.426-9.016a18.878 18.878 0 1 1-11.377 12.743z" class="prefix__cls-1" data-name="Tracé 134" transform="translate(-119.173 -131.106)"/>
        <path id="prefix__Tracé_135" d="M246.561 251.1a16.219 16.219 0 0 0 16.2-16.2.881.881 0 0 0-1.762 0 14.454 14.454 0 0 1-14.438 14.438.881.881 0 1 0 0 1.762z" class="prefix__cls-1" data-name="Tracé 135" transform="translate(-194.739 -206.673)"/>
        <path id="prefix__Tracé_136" d="M236.957 228.69a3.394 3.394 0 1 0-3.394-3.393 3.4 3.4 0 0 0 3.394 3.393zm0-5.025a1.631 1.631 0 1 1-1.631 1.631 1.633 1.633 0 0 1 1.631-1.631z" class="prefix__cls-1" data-name="Tracé 136" transform="translate(-185.134 -197.068)"/>
        <path id="prefix__Tracé_137" d="M.846 130.357a.881.881 0 0 0 .277.642 107.219 107.219 0 0 0 15.687 11.663c8.68 5.33 21.908 11.684 35.631 11.684s26.623-6.358 35.023-11.691a99.281 99.281 0 0 0 15.073-11.672.874.874 0 0 0 .08-1.154 83.509 83.509 0 0 0-14.011-13.783c-8.051-6.307-20.789-13.84-35.748-13.912-13.654-.06-27.177 3.975-36.118 7.377a126.331 126.331 0 0 0-16.3 7.475.881.881 0 0 0-.34 1.167l4.483 8.587c-2.189 1.786-3.432 2.949-3.46 2.975a.881.881 0 0 0-.277.642zM2.061 118.1c4.372-2.37 27.378-14.209 50.465-14.209h.326c14.444.07 26.805 7.385 34.632 13.508 1.461 1.143 2.82 2.288 4.074 3.4-1.278-.9-2.646-1.823-4.094-2.743-8.4-5.334-21.294-11.691-35.023-11.691s-26.95 6.354-35.631 11.684a114.115 114.115 0 0 0-10.826 7.564zm4.213 9.537h12.558a.881.881 0 1 0 0-1.762H8.526c2.479-1.889 5.6-4.109 9.207-6.321h7.936a.881.881 0 1 0 0-1.762h-4.945c8.373-4.751 19.885-9.658 31.717-9.658 13.292 0 25.85 6.2 34.044 11.4a100.978 100.978 0 0 1 14.153 10.832c-.668.622-1.829 1.673-3.4 2.986h-8.12a.881.881 0 1 0 0 1.762h5.945a103.56 103.56 0 0 1-8.579 6.087c-8.194 5.2-20.752 11.395-34.044 11.395s-26.2-6.2-34.676-11.4a109.191 109.191 0 0 1-14.724-10.84c.66-.583 1.76-1.534 3.234-2.719z" class="prefix__cls-1" data-name="Tracé 137" transform="translate(0 -102.129)"/>
        <path id="prefix__Tracé_138" d="M104.531 273.957a97.486 97.486 0 0 1-14.811 11.458c-8.194 5.2-20.752 11.4-34.044 11.4s-26.2-6.2-34.676-11.4a105.411 105.411 0 0 1-15.434-11.474.881.881 0 0 0-1.208 1.283 107.227 107.227 0 0 0 15.687 11.663c8.68 5.33 21.908 11.684 35.631 11.684s26.624-6.356 35.024-11.69a99.282 99.282 0 0 0 15.073-11.672.881.881 0 0 0-1.241-1.252z" class="prefix__cls-1" data-name="Tracé 138" transform="translate(-3.235 -238.127)"/>
    </g>
</svg>
