<svg xmlns="http://www.w3.org/2000/svg" width="98.496" height="103.789" viewBox="0 0 98.496 103.789">
    <defs>
        <style>
            .prefix__cls-1{fill:#386dda;stroke:#386dda;stroke-width:.5px}
        </style>
    </defs>
    <g id="prefix__human-fetus" transform="translate(.254 .268)">
        <path id="prefix__Tracé_143" d="M112.5 108.52a15.835 15.835 0 0 1-13.35-2.9 16.951 16.951 0 0 1-3.285-3.436c3.913-.044 7.53-1.531 13.365-7.151 4.428-4.265 4.852-9.089 3.773-12.181a5.917 5.917 0 0 0-4.752-4.271c-3-.285-3.572 2.211-4.123 4.626-.486 2.129-1.091 4.78-3.273 6.871a4.956 4.956 0 0 1-3.67 1.539 8.879 8.879 0 0 1-5.14-2.384c3.382-1.712 6.59-4.69 7.591-8.013 1.5-4.992-3.5-9.969-5.093-11.4a17.827 17.827 0 0 0 .559-6.775c-.419-3.828-2.344-9.306-9.141-13.661-6.741-4.319-16.358-4.624-24.5-.777-7.636 3.608-12.551 10.195-13.486 18.072-1.329 11.2 6.287 16.221 12.407 20.259 3.807 2.511 7.094 4.68 7.229 7.651a41.208 41.208 0 0 0 26.877 36.28 18.546 18.546 0 0 0 6.359 1.193c9.134 0 15.237-7.87 20.318-14.422a53.63 53.63 0 0 1 6.028-6.983 17.6 17.6 0 0 0 5.945-15.086c-.395-3.145-1.754-5.6-3.636-6.57-3.854-1.985-7.189 1.662-8.413 3.868a.884.884 0 0 0-.077.67c.017.059 1.646 5.948-1.061 10.354-1.467 2.396-3.973 3.951-7.451 4.627zm10.3-15.079c.654-1.02 3.055-4.33 5.89-2.87 1.344.692 2.377 2.693 2.694 5.223a15.818 15.818 0 0 1-5.366 13.548 54.756 54.756 0 0 0-6.251 7.222c-6.131 7.906-13.079 16.867-24.683 12.653a39.337 39.337 0 0 1-25.718-34.7c-.175-3.867-3.81-6.265-8.019-9.042s-8.778-5.8-10.759-10.808h16.754a.881.881 0 1 0 0-1.762H50.031a16.19 16.19 0 0 1-.378-5.231h5.941a.881.881 0 1 0 0-1.762h-5.723c1.141-6.825 5.593-12.511 12.345-15.7A26.32 26.32 0 0 1 73.4 47.68a21.548 21.548 0 0 1 11.616 3.192c4.959 3.178 7.762 7.314 8.331 12.293a15.686 15.686 0 0 1-.64 6.63.881.881 0 0 0 .268 1c.064.052 6.386 5.252 4.98 9.921-1.493 4.959-8.777 8.805-12.159 8.225a.881.881 0 0 0-.3 1.737 9.681 9.681 0 0 0 4.8-.673c.488.5 3.355 3.28 6.839 3.377a6.73 6.73 0 0 0 4.946-2.028c2.563-2.457 3.262-5.517 3.771-7.751.619-2.714.919-3.39 2.237-3.264a4.2 4.2 0 0 1 3.255 3.1c.9 2.577.5 6.644-3.332 10.331-6.821 6.57-10.113 6.88-13.708 6.6a.881.881 0 0 0-.855 1.274A17.6 17.6 0 0 0 98 106.961a17.239 17.239 0 0 0 2.461 1.624H91.5a.881.881 0 1 0 0 1.762h13.94a19.6 19.6 0 0 0 7.4-.1c3.984-.775 6.884-2.606 8.622-5.442 2.715-4.43 1.698-9.874 1.345-11.364z" class="prefix__cls-1" data-name="Tracé 143" transform="translate(-40.547 -36.402)"/>
        <path id="prefix__Tracé_144" d="M123.987 72.36a16.772 16.772 0 0 0-12.287-1.982 17.653 17.653 0 0 0-10.859 6.77.881.881 0 1 0 1.434 1.024c4.522-6.33 14.416-8.393 20.759-4.329a.881.881 0 0 0 .951-1.484z" class="prefix__cls-1" data-name="Tracé 144" transform="translate(-82.443 -55.486)"/>
        <path id="prefix__Tracé_145" d="M94.249 32.372C103.2 24.975 108.7 14.608 110.6 1.538a.881.881 0 1 0-1.744-.254c-1.9 13.031-7.475 23.264-16.583 30.413a.881.881 0 0 0 .017 1.4 46.564 46.564 0 0 1 6.891 6.283H87.842a.881.881 0 0 0 0 1.762h12.833a36.626 36.626 0 0 1 8.28 22.609 37.5 37.5 0 0 1-14.394 29.682C75.347 108.541 46.819 102.079 28.2 78.4a70.5 70.5 0 0 1-4.235-6H29.1a.881.881 0 0 0 0-1.762h-6.209a65.3 65.3 0 0 1-4-7.99h9.992a.881.881 0 1 0 0-1.762H18.19A51.767 51.767 0 0 1 14.858 36c1.358-10.639 6.33-19.5 14.379-25.624 9.243-7.029 17.328-9.049 25.442-6.353C62.143 6.5 68.923 12.55 76.774 19.55l1.858 1.655h-7.857a.881.881 0 0 0 0 1.762h9.852c1.44 1.264 2.912 2.535 4.426 3.8a.881.881 0 0 0 1.059.052c8.221-5.581 13.734-14.24 16.388-25.739a.881.881 0 0 0-1.717-.4c-2.488 10.794-7.571 18.964-15.112 24.3-2.681-2.252-5.24-4.534-7.721-6.746-8-7.131-14.9-13.289-22.712-15.884-8.719-2.896-17.32-.79-27.068 6.627a37.847 37.847 0 0 0-10.24 11.832 41.547 41.547 0 0 0-4.82 14.971 51.884 51.884 0 0 0 2.049 21.782 67.211 67.211 0 0 0 11.658 21.93C36.2 91.422 48.432 99.5 61.265 102.238a45.948 45.948 0 0 0 9.595 1.033 39.659 39.659 0 0 0 36.019-22.394 38.574 38.574 0 0 0 3.839-17.147c-.151-12.074-5.989-23.169-16.469-31.358z" class="prefix__cls-1" data-name="Tracé 145" transform="translate(-12.728)"/>
        <path id="prefix__Tracé_146" d="M169.156 387.63c-16.049 12.62-39.887 7.211-55.45-12.58a.881.881 0 1 0-1.385 1.089c7.888 10.031 18.177 16.824 28.971 19.126a38.7 38.7 0 0 0 8.076.869 33.394 33.394 0 0 0 20.878-7.119.881.881 0 1 0-1.089-1.385z" class="prefix__cls-1" data-name="Tracé 146" transform="translate(-91.521 -297.018)"/>
    </g>
</svg>
