<svg xmlns="http://www.w3.org/2000/svg" width="100.338" height="78.128" viewBox="0 0 100.338 78.128">
    <defs>
        <style>
            .prefix__cls-1{fill:#386dda;stroke:#386dda;stroke-width:.5px}
        </style>
    </defs>
    <g id="prefix__human-skin" transform="translate(.25 .316)">
        <path id="prefix__Tracé_151" d="M50.052 53.894C32.9 74.4 29.921 81.533 29.921 81.533a6.083 6.083 0 0 0-2.344-.659c-18.885-1.886-25.7-4.656-25.761-4.683a.881.881 0 0 0-1.223.8L0 127.045a.881.881 0 0 0 .557.83c4.533 1.792 28.092 3 47.958 3.219 1.662.019 3.966.037 6.682.037 13.536 0 37.293-.445 42.674-3.453a2.5 2.5 0 0 0 1.41-1.656c1.19-6.741-.128-41.8-.185-43.293a.881.881 0 0 0-.96-.844c-.157.014-15.824 1.412-27.51-.018a46.533 46.533 0 0 0-10.739-.03 120.013 120.013 0 0 1-20.664.026 5.209 5.209 0 0 0-2.369.548 25.643 25.643 0 0 1 2.9-12.526c1.256-2.479 11.561-14.751 11.664-14.877a.882.882 0 0 0-1.367-1.113zM2.057 102.166H14.49a.881.881 0 1 0 0-1.762H2.078l.135-11.413c2.176.094 8.057.5 11.864 2.173a20.994 20.994 0 0 0 8.314 1.666c.706 0 1.268-.034 1.634-.066a8.474 8.474 0 0 0 2.141 5.826 7.867 7.867 0 0 0 3.411 2.086c-.156 1.2-.49 3.538-1 5.944-1.105 5.231-2.376 6.872-2.934 7.338-11.725-1.38-21.443-3.472-23.682-3.972zm28.248 4.818c.518-2.451.854-4.789 1.015-6.027.083 0 .166.006.25.006h.221c-.421 2.835-1.224 10.054.823 13.7-1.609-.133-3.2-.287-4.766-.454.76-1.142 1.615-3.238 2.457-7.225zm4.719 7.859c-2.273-2.43-1.928-10.692-1.4-14.18.142-.042.284-.086.425-.137a9.483 9.483 0 0 0 5.451-5.485 16.912 16.912 0 0 1 7.3.8l.508.164a18.161 18.161 0 0 0 7.955 1.259c.535-.05 1.091-.116 1.679-.186a39.9 39.9 0 0 1 12.538.179c2.054.338 3.164.564 3.827.7a5 5 0 0 0 2.313.11c.577-.07 1.45-.177 3.075-.306 6.008-.479 18.963 2.907 19.094 2.941.02.005.041.008.061.012q.026 1.216.049 2.451H87.614a.881.881 0 0 0 0 1.762h10.319c.03 1.874.054 3.747.067 5.564H74.759a.881.881 0 1 0 0 1.762H98.01c.007 1.865 0 3.648-.021 5.286-4.165-.243-36.035-2.074-54.858-2.349-2.692-.035-5.413-.16-8.106-.347zm25-31.251a45.112 45.112 0 0 1 10.382.023c10.217 1.251 23.385.377 26.957.1.08 2.241.288 8.294.446 15.175-2.356-.6-13.507-3.339-19.254-2.883-1.662.132-2.592.245-3.148.313a3.645 3.645 0 0 1-1.747-.087c-.675-.138-1.806-.368-3.893-.711a41.976 41.976 0 0 0-13.033-.19c-.576.069-1.121.134-1.634.182a16.532 16.532 0 0 1-7.248-1.181l-.511-.165a19.361 19.361 0 0 0-7.248-.961 13.882 13.882 0 0 0 .339-2.081v-.033l.357-7.362a118.314 118.314 0 0 0 19.24-.138zM36.342 74.4a32.94 32.94 0 0 0-1.207 11.368 39.579 39.579 0 0 1-.113 5.783c-.238 2.218-1.146 3.343-2.7 3.343a3.525 3.525 0 0 1-2.231-.806c-3.651-3.653 1.728-13.263 6.251-19.688zm-7.5 20.933a5.182 5.182 0 0 0 3.478 1.322c1.18 0 3.976-.479 4.451-4.917a41 41 0 0 0 .129-6.028c-.012-.386-.025-.77-.035-1.156.007-.012.016-.022.022-.034a3.5 3.5 0 0 1 2.152-.9l-.358 7.371c-.331 3.767-2.38 6.857-5.224 7.877a5.561 5.561 0 0 1-6.027-1.51c-3.6-3.679-.372-12.3.6-14.638a3 3 0 0 1 1.123.407c-2.597 5.71-2.706 9.809-.308 12.206zm-2.633-12.827a30.456 30.456 0 0 0-2.139 8.483 19.809 19.809 0 0 1-9.283-1.438c-4.156-1.829-10.311-2.236-12.553-2.325l.106-8.978c2.613.852 9.707 2.777 23.869 4.258zm70.449 43.81c-4.771 2.173-23.54 3.324-48.983 3.005-21.428-.268-41.044-1.521-45.905-2.9l.044-3.659H14.49a.881.881 0 0 0 0-1.762H1.834l.109-9.213c4.238.932 23.3 4.909 41.162 5.17 18.9.277 51.009 2.126 54.852 2.35-.022.959-.05 1.852-.087 2.661H86.232a.881.881 0 1 0 0 1.762h11.536c-.061.809-.134 1.48-.221 1.978-.001.003-.108.253-.889.608z" class="prefix__cls-1" data-name="Tracé 151" transform="translate(0 -53.57)"/>
        <path id="prefix__Tracé_152" d="M102.908 378.779H93.15a.881.881 0 0 0 0 1.762h9.758a.881.881 0 0 0 0-1.762z" class="prefix__cls-1" data-name="Tracé 152" transform="translate(-73.137 -311.348)"/>
    </g>
</svg>
