<svg xmlns="http://www.w3.org/2000/svg" width="61.603" height="101.279" viewBox="0 0 61.603 101.279">
  <g id="Groupe_118" data-name="Groupe 118" transform="translate(-1300.172 -499.295)">
    <path id="Tracé_139" data-name="Tracé 139" d="M156.759,30.467a30.508,30.508,0,0,0-61.016.041.881.881,0,0,0,1.762,0,28.745,28.745,0,0,1,55.252-11.121h-5.377a.881.881,0,0,0,0,1.762h6.051a28.5,28.5,0,0,1,1.215,4.873h-4.155a.881.881,0,0,0,0,1.762h4.376c.085.9.13,1.8.13,2.724,0,.029,0,.059,0,.087a34.735,34.735,0,0,1-1.164,10.676A48.1,48.1,0,0,1,140.576,63.8a45.872,45.872,0,0,0-7.714,9.85h-5.146a.881.881,0,0,0,0,1.762h4.191a28.03,28.03,0,0,0-3.173,9.857c-.927,8.993-5.884,13.748-14.334,13.748-7.354,0-12.518-5.209-13.813-13.933a.881.881,0,0,0-1.743.259c1.413,9.522,7.374,15.436,15.556,15.436,4.469,0,8.114-1.217,10.833-3.616,2.958-2.61,4.726-6.556,5.257-11.728,0-.01,0-.021,0-.031.007-.1.781-10,11.318-20.346a49.835,49.835,0,0,0,13.757-23.439A36.077,36.077,0,0,0,156.759,30.467Z" transform="translate(1204.679 499.545)" fill="#386dda" stroke="#386dda" stroke-width="0.5"/>
    <path id="Tracé_140" data-name="Tracé 140" d="M148.715,28.339a24.66,24.66,0,0,0-24.632,24.632.881.881,0,1,0,1.762,0,22.9,22.9,0,0,1,22.87-22.87.881.881,0,1,0,0-1.762Z" transform="translate(1182.215 477.082)" fill="#386dda" stroke="#386dda" stroke-width="0.5"/>
    <path id="Tracé_141" data-name="Tracé 141" d="M191.5,408.147c-.6,5.839-3.677,8.8-9.149,8.8a.881.881,0,1,0,0,1.762c6.344,0,10.215-3.687,10.9-10.382a.881.881,0,1,0-1.753-.18Z" transform="translate(1136.723 176.653)" fill="#386dda" stroke="#386dda" stroke-width="0.5"/>
    <path id="Tracé_142" data-name="Tracé 142" d="M163.73,110.066a.881.881,0,0,0,1.245-.063c7.246-8.022,6.721-18.211,6.668-19a18.142,18.142,0,0,0-36.284.031v12.021a.881.881,0,0,0,.7.862,13.266,13.266,0,0,1,7.731,5.37,11.374,11.374,0,0,1,1.539,6.9h-6.534a.881.881,0,1,0,0,1.762h6.321c-.1.559-.216,1.13-.368,1.714-2.193,8.45-9.054,9.338-11.72,9.354a34.457,34.457,0,0,0,1.018-5.1c.529-4.6-.351-7.577-2.616-8.835a.881.881,0,1,0-.856,1.541c3.276,1.82,1.436,9.964.45,12.949a.882.882,0,0,0,.732,1.152,10.218,10.218,0,0,0,1.116.052,15.446,15.446,0,0,0,5.056-.857c3-1.06,6.919-3.623,8.524-9.81,1.2-4.612.8-8.565-1.166-11.749a14.715,14.715,0,0,0-8.166-5.982V99.914h11.625a.881.881,0,1,0,0-1.762H137.12v-.288c3.74-9.405,10.079-14.627,18.844-15.519a29.549,29.549,0,0,1,12.245,1.495,16.276,16.276,0,0,1,1.67,7.2c0,.021,0,.043,0,.064.007.1.647,10.124-6.216,17.722A.881.881,0,0,0,163.73,110.066Zm-15-27.669A23.909,23.909,0,0,0,137.12,93.65V91.035a16.371,16.371,0,0,1,29.726-9.478C163.331,80.594,155.939,79.268,148.726,82.4Z" transform="translate(1177.431 441.766)" fill="#386dda" stroke="#386dda" stroke-width="0.5"/>
  </g>
</svg>
