<svg xmlns="http://www.w3.org/2000/svg" width="67.164" height="110.145" viewBox="0 0 67.164 110.145">
    <defs>
        <style>
            .prefix__cls-1{fill:#386dda}
        </style>
    </defs>
    <g id="prefix__newborn" transform="translate(-99.513)">
        <path id="prefix__Tracé_153" d="M160.894 57.749c-1.984-2.919-2.019-4.611-.155-7.546a32.717 32.717 0 1 0-55.071.334c1.719 2.636 1.642 4.24-.342 7.151a33.62 33.62 0 0 0 23.961 52.243c.538.059 1.074.1 1.609.138.022.007.044.015.067.021a1.618 1.618 0 0 0 .408.052 1.589 1.589 0 0 0 .3-.032c.493.021.986.035 1.476.035a33.191 33.191 0 0 0 22.345-8.564 33.542 33.542 0 0 0 5.4-43.832zm-7.561 41.419a29.983 29.983 0 0 1-19.887 7.734c4.193-17.044 4.549-30.343 1.09-40.6a36.063 36.063 0 0 0-2.82-6.32 1.613 1.613 0 0 0 .184-.925c-.32-3.237 1.67-4.077 5.7-4.565a11.149 11.149 0 0 0 1.633-.27 22.358 22.358 0 1 0-21-4.8l.6.544c4.58 4.161 9.771 8.877 12.636 17.373 3.3 9.786 2.867 22.7-1.322 39.428-.168-.016-.335-.03-.5-.049A30.337 30.337 0 0 1 108 59.512c2.716-3.985 2.822-7 .379-10.745a29.453 29.453 0 0 1 5.056-38.012 29.139 29.139 0 0 1 19.62-7.515 31.046 31.046 0 0 1 3.4.189A29.464 29.464 0 0 1 158 48.466c-2.55 4.016-2.491 7.129.211 11.1a30.3 30.3 0 0 1-4.882 39.6zm-24.288-43.235a60.967 60.967 0 0 0-8.037-8.372l-.595-.541a19.109 19.109 0 1 1 17.935 4.08 10.968 10.968 0 0 1-1.134.169 14.3 14.3 0 0 0-5.405 1.468 6.118 6.118 0 0 0-2.764 3.196z" class="prefix__cls-1" data-name="Tracé 153"/>
        <path id="prefix__Tracé_154" d="M232.58 152.545a8.53 8.53 0 1 0-8.53 8.53 8.54 8.54 0 0 0 8.53-8.53zm-8.53 5.291a5.291 5.291 0 1 1 5.291-5.291 5.3 5.3 0 0 1-5.292 5.291z" class="prefix__cls-1" data-name="Tracé 154" transform="translate(-90.954 -112.914)"/>
        <path id="prefix__Tracé_155" d="M198.43 109.09a1.62 1.62 0 1 0 3.239 0 5.075 5.075 0 0 0-10.15 0 1.62 1.62 0 0 0 3.239 0 1.836 1.836 0 0 1 3.671 0z" class="prefix__cls-1" data-name="Tracé 155" transform="translate(-72.137 -81.552)"/>
        <path id="prefix__Tracé_156" d="M273.139 110.71a1.62 1.62 0 0 0 1.62-1.62 1.836 1.836 0 1 1 3.671 0 1.62 1.62 0 1 0 3.239 0 5.075 5.075 0 1 0-10.15 0 1.62 1.62 0 0 0 1.62 1.62z" class="prefix__cls-1" data-name="Tracé 156" transform="translate(-134.86 -81.552)"/>
        <path id="prefix__Tracé_157" d="M242.866 168.015a3.347 3.347 0 1 0 3.347 3.347 3.351 3.351 0 0 0-3.347-3.347zm0 3.455a.108.108 0 1 1 .108-.108.108.108 0 0 1-.108.108z" class="prefix__cls-1" data-name="Tracé 157" transform="translate(-109.771 -131.731)"/>
    </g>
</svg>
