<svg xmlns="http://www.w3.org/2000/svg" width="78.9" height="105.269" viewBox="0 0 78.9 105.269">
    <path id="prefix__stethoscope" d="M121.579 62.626h-18.232v-3.5h4.942a6.5 6.5 0 0 0 6.489-6.489c0-6.808 3.94-11.706 8.111-16.89 3.777-4.7 7.683-9.55 8.361-15.907a14.908 14.908 0 0 0-3.039-11.363 14.918 14.918 0 0 0-8.689-5.008A4.849 4.849 0 0 0 114.882 0h-1.648a4.841 4.841 0 1 0 0 9.682h1.648a4.848 4.848 0 0 0 4.518-3.094 11.687 11.687 0 0 1 6.435 3.854 11.746 11.746 0 0 1 2.348 9.067c-.581 5.454-4.037 9.75-7.7 14.3-4.036 5.016-8.2 10.193-8.734 17.282h-20c-.536-7.09-4.7-12.266-8.734-17.282-3.659-4.548-7.114-8.843-7.7-14.3a11.744 11.744 0 0 1 2.348-9.067A11.687 11.687 0 0 1 84.1 6.588a4.847 4.847 0 0 0 4.513 3.094h1.648a4.841 4.841 0 0 0 0-9.682h-1.643a4.849 4.849 0 0 0-4.641 3.466 14.918 14.918 0 0 0-8.689 5.008 14.908 14.908 0 0 0-3.039 11.363c.677 6.356 4.583 11.211 8.361 15.907 4.171 5.185 8.111 10.082 8.111 16.89a6.5 6.5 0 0 0 6.489 6.489h5.047v3.5h-16.81a9.785 9.785 0 1 0 0 3.09h16.81v18.234a21.322 21.322 0 1 0 21.322-21.322zm-6.7-56.034h-1.648a1.751 1.751 0 1 1 0-3.5h1.648a1.751 1.751 0 0 1 0 3.5zM88.618 3.09h1.648a1.751 1.751 0 0 1 0 3.5h-1.648a1.751 1.751 0 1 1 0-3.5zm3.565 51.09h19.134a3.4 3.4 0 0 1-3.027 1.854H95.21a3.4 3.4 0 0 1-3.027-1.854zm-18.4 16.686a6.7 6.7 0 1 1 6.513-8.24h-1.924a4.841 4.841 0 1 0 0 3.09H80.3a6.706 6.706 0 0 1-6.515 5.15zm1.751-6.7a1.751 1.751 0 1 1-1.751-1.751 1.753 1.753 0 0 1 1.753 1.756zm46.042 38.008a18.252 18.252 0 0 1-18.232-18.232V65.716h18.232a18.232 18.232 0 1 1 0 36.463z" transform="translate(-64)" style="fill:#386dda"/>
</svg>
